<svg width="60" height="60" viewBox="0 0 60 60" fill="none" xmlns="http://www.w3.org/2000/svg">
<path d="M58.7857 51.3878H52.4329C56.6497 45.9004 58.9721 39.0389 58.9721 32.0672C58.9721 15.1857 45.9751 1.45142 29.9982 1.45142C14.0219 1.45142 1.02429 15.1863 1.02429 32.0672C1.02429 39.0401 3.34548 45.9016 7.56163 51.3878H1.21433C0.544019 51.3878 0 51.9215 0 52.579V57.1736C0 57.8312 0.544019 58.3648 1.21433 58.3648H18.5495C19.2198 58.3648 19.7638 57.8312 19.7638 57.1736V52.0555C19.7638 51.772 19.6612 51.4986 19.4742 51.2836L19.4068 51.2055C19.3388 51.1263 19.2599 51.0566 19.173 50.9983C13.207 46.9421 9.5003 39.6887 9.5003 32.0666C9.5003 19.7696 18.6958 9.76561 29.9982 9.76561C41.2999 9.76561 50.4954 19.7702 50.4954 32.0666C50.4954 39.7209 46.7656 46.9898 40.7632 51.0376C40.4335 51.2597 40.2368 51.6266 40.2368 52.0185V57.1724C40.2368 57.83 40.7808 58.3636 41.4511 58.3636H58.7857C59.456 58.3636 60 57.83 60 57.1724V52.5778C60 51.9209 59.4572 51.3878 58.7857 51.3878Z" fill="white"/>
</svg>
